<?xml version='1.0' encoding='UTF-8'?>
<svg width="49mm" height="49mm" version="1.1" viewBox="0 0 49 49" fill_color="#0d1b3e" back_color="white" xmlns="http://www.w3.org/2000/svg"><path d="M2,2H3V3H2zM3,2H4V3H3zM4,2H5V3H4zM5,2H6V3H5zM6,2H7V3H6zM7,2H8V3H7zM8,2H9V3H8zM10,2H11V3H10zM11,2H12V3H11zM14,2H15V3H14zM17,2H18V3H17zM18,2H19V3H18zM19,2H20V3H19zM23,2H24V3H23zM24,2H25V3H24zM25,2H26V3H25zM26,2H27V3H26zM27,2H28V3H27zM28,2H29V3H28zM29,2H30V3H29zM30,2H31V3H30zM32,2H33V3H32zM33,2H34V3H33zM34,2H35V3H34zM38,2H39V3H38zM40,2H41V3H40zM41,2H42V3H41zM42,2H43V3H42zM43,2H44V3H43zM44,2H45V3H44zM45,2H46V3H45zM46,2H47V3H46zM2,3H3V4H2zM8,3H9V4H8zM12,3H13V4H12zM13,3H14V4H13zM14,3H15V4H14zM15,3H16V4H15zM16,3H17V4H16zM17,3H18V4H17zM18,3H19V4H18zM22,3H23V4H22zM25,3H26V4H25zM26,3H27V4H26zM27,3H28V4H27zM29,3H30V4H29zM33,3H34V4H33zM35,3H36V4H35zM37,3H38V4H37zM40,3H41V4H40zM46,3H47V4H46zM2,4H3V5H2zM4,4H5V5H4zM5,4H6V5H5zM6,4H7V5H6zM8,4H9V5H8zM10,4H11V5H10zM12,4H13V5H12zM13,4H14V5H13zM15,4H16V5H15zM18,4H19V5H18zM19,4H20V5H19zM20,4H21V5H20zM21,4H22V5H21zM22,4H23V5H22zM23,4H24V5H23zM25,4H26V5H25zM27,4H28V5H27zM28,4H29V5H28zM29,4H30V5H29zM30,4H31V5H30zM31,4H32V5H31zM34,4H35V5H34zM35,4H36V5H35zM37,4H38V5H37zM40,4H41V5H40zM42,4H43V5H42zM43,4H44V5H43zM44,4H45V5H44zM46,4H47V5H46zM2,5H3V6H2zM4,5H5V6H4zM5,5H6V6H5zM6,5H7V6H6zM8,5H9V6H8zM12,5H13V6H12zM15,5H16V6H15zM16,5H17V6H16zM17,5H18V6H17zM19,5H20V6H19zM22,5H23V6H22zM27,5H28V6H27zM29,5H30V6H29zM30,5H31V6H30zM33,5H34V6H33zM34,5H35V6H34zM35,5H36V6H35zM37,5H38V6H37zM38,5H39V6H38zM40,5H41V6H40zM42,5H43V6H42zM43,5H44V6H43zM44,5H45V6H44zM46,5H47V6H46zM2,6H3V7H2zM4,6H5V7H4zM5,6H6V7H5zM6,6H7V7H6zM8,6H9V7H8zM10,6H11V7H10zM12,6H13V7H12zM14,6H15V7H14zM15,6H16V7H15zM18,6H19V7H18zM22,6H23V7H22zM23,6H24V7H23zM24,6H25V7H24zM25,6H26V7H25zM26,6H27V7H26zM30,6H31V7H30zM31,6H32V7H31zM32,6H33V7H32zM33,6H34V7H33zM36,6H37V7H36zM37,6H38V7H37zM38,6H39V7H38zM40,6H41V7H40zM42,6H43V7H42zM43,6H44V7H43zM44,6H45V7H44zM46,6H47V7H46zM2,7H3V8H2zM8,7H9V8H8zM11,7H12V8H11zM13,7H14V8H13zM14,7H15V8H14zM19,7H20V8H19zM21,7H22V8H21zM22,7H23V8H22zM26,7H27V8H26zM30,7H31V8H30zM33,7H34V8H33zM34,7H35V8H34zM40,7H41V8H40zM46,7H47V8H46zM2,8H3V9H2zM3,8H4V9H3zM4,8H5V9H4zM5,8H6V9H5zM6,8H7V9H6zM7,8H8V9H7zM8,8H9V9H8zM10,8H11V9H10zM12,8H13V9H12zM14,8H15V9H14zM16,8H17V9H16zM18,8H19V9H18zM20,8H21V9H20zM22,8H23V9H22zM24,8H25V9H24zM26,8H27V9H26zM28,8H29V9H28zM30,8H31V9H30zM32,8H33V9H32zM34,8H35V9H34zM36,8H37V9H36zM38,8H39V9H38zM40,8H41V9H40zM41,8H42V9H41zM42,8H43V9H42zM43,8H44V9H43zM44,8H45V9H44zM45,8H46V9H45zM46,8H47V9H46zM10,9H11V10H10zM11,9H12V10H11zM13,9H14V10H13zM14,9H15V10H14zM15,9H16V10H15zM16,9H17V10H16zM18,9H19V10H18zM20,9H21V10H20zM22,9H23V10H22zM26,9H27V10H26zM31,9H32V10H31zM34,9H35V10H34zM35,9H36V10H35zM36,9H37V10H36zM38,9H39V10H38zM7,10H8V11H7zM8,10H9V11H8zM11,10H12V11H11zM12,10H13V11H12zM14,10H15V11H14zM15,10H16V11H15zM22,10H23V11H22zM23,10H24V11H23zM24,10H25V11H24zM25,10H26V11H25zM26,10H27V11H26zM27,10H28V11H27zM29,10H30V11H29zM31,10H32V11H31zM36,10H37V11H36zM40,10H41V11H40zM42,10H43V11H42zM44,10H45V11H44zM46,10H47V11H46zM2,11H3V12H2zM3,11H4V12H3zM4,11H5V12H4zM6,11H7V12H6zM10,11H11V12H10zM13,11H14V12H13zM14,11H15V12H14zM15,11H16V12H15zM16,11H17V12H16zM17,11H18V12H17zM19,11H20V12H19zM20,11H21V12H20zM23,11H24V12H23zM26,11H27V12H26zM28,11H29V12H28zM31,11H32V12H31zM32,11H33V12H32zM36,11H37V12H36zM37,11H38V12H37zM38,11H39V12H38zM39,11H40V12H39zM40,11H41V12H40zM43,11H44V12H43zM44,11H45V12H44zM2,12H3V13H2zM3,12H4V13H3zM8,12H9V13H8zM10,12H11V13H10zM13,12H14V13H13zM15,12H16V13H15zM16,12H17V13H16zM17,12H18V13H17zM20,12H21V13H20zM24,12H25V13H24zM29,12H30V13H29zM30,12H31V13H30zM33,12H34V13H33zM34,12H35V13H34zM35,12H36V13H35zM36,12H37V13H36zM37,12H38V13H37zM40,12H41V13H40zM41,12H42V13H41zM43,12H44V13H43zM44,12H45V13H44zM2,13H3V14H2zM3,13H4V14H3zM4,13H5V14H4zM7,13H8V14H7zM9,13H10V14H9zM11,13H12V14H11zM12,13H13V14H12zM13,13H14V14H13zM14,13H15V14H14zM15,13H16V14H15zM16,13H17V14H16zM19,13H20V14H19zM20,13H21V14H20zM24,13H25V14H24zM27,13H28V14H27zM28,13H29V14H28zM30,13H31V14H30zM31,13H32V14H31zM34,13H35V14H34zM36,13H37V14H36zM37,13H38V14H37zM42,13H43V14H42zM43,13H44V14H43zM44,13H45V14H44zM45,13H46V14H45zM5,14H6V15H5zM8,14H9V15H8zM9,14H10V15H9zM10,14H11V15H10zM12,14H13V15H12zM13,14H14V15H13zM14,14H15V15H14zM18,14H19V15H18zM20,14H21V15H20zM22,14H23V15H22zM25,14H26V15H25zM26,14H27V15H26zM27,14H28V15H27zM29,14H30V15H29zM34,14H35V15H34zM35,14H36V15H35zM37,14H38V15H37zM39,14H40V15H39zM40,14H41V15H40zM42,14H43V15H42zM43,14H44V15H43zM46,14H47V15H46zM2,15H3V16H2zM3,15H4V16H3zM5,15H6V16H5zM9,15H10V16H9zM12,15H13V16H12zM20,15H21V16H20zM21,15H22V16H21zM24,15H25V16H24zM25,15H26V16H25zM27,15H28V16H27zM31,15H32V16H31zM32,15H33V16H32zM35,15H36V16H35zM38,15H39V16H38zM39,15H40V16H39zM45,15H46V16H45zM3,16H4V17H3zM6,16H7V17H6zM7,16H8V17H7zM8,16H9V17H8zM10,16H11V17H10zM15,16H16V17H15zM16,16H17V17H16zM18,16H19V17H18zM21,16H22V17H21zM22,16H23V17H22zM23,16H24V17H23zM24,16H25V17H24zM26,16H27V17H26zM27,16H28V17H27zM30,16H31V17H30zM31,16H32V17H31zM33,16H34V17H33zM35,16H36V17H35zM39,16H40V17H39zM40,16H41V17H40zM42,16H43V17H42zM44,16H45V17H44zM45,16H46V17H45zM3,17H4V18H3zM4,17H5V18H4zM7,17H8V18H7zM10,17H11V18H10zM12,17H13V18H12zM16,17H17V18H16zM17,17H18V18H17zM18,17H19V18H18zM19,17H20V18H19zM25,17H26V18H25zM26,17H27V18H26zM27,17H28V18H27zM29,17H30V18H29zM31,17H32V18H31zM32,17H33V18H32zM35,17H36V18H35zM38,17H39V18H38zM39,17H40V18H39zM43,17H44V18H43zM44,17H45V18H44zM45,17H46V18H45zM2,18H3V19H2zM3,18H4V19H3zM5,18H6V19H5zM6,18H7V19H6zM8,18H9V19H8zM9,18H10V19H9zM11,18H12V19H11zM15,18H16V19H15zM16,18H17V19H16zM18,18H19V19H18zM20,18H21V19H20zM22,18H23V19H22zM27,18H28V19H27zM30,18H31V19H30zM32,18H33V19H32zM33,18H34V19H33zM38,18H39V19H38zM39,18H40V19H39zM40,18H41V19H40zM43,18H44V19H43zM45,18H46V19H45zM46,18H47V19H46zM3,19H4V20H3zM4,19H5V20H4zM9,19H10V20H9zM10,19H11V20H10zM15,19H16V20H15zM17,19H18V20H17zM18,19H19V20H18zM21,19H22V20H21zM22,19H23V20H22zM25,19H26V20H25zM26,19H27V20H26zM29,19H30V20H29zM32,19H33V20H32zM33,19H34V20H33zM35,19H36V20H35zM37,19H38V20H37zM38,19H39V20H38zM39,19H40V20H39zM41,19H42V20H41zM44,19H45V20H44zM46,19H47V20H46zM2,20H3V21H2zM4,20H5V21H4zM6,20H7V21H6zM8,20H9V21H8zM12,20H13V21H12zM15,20H16V21H15zM17,20H18V21H17zM19,20H20V21H19zM21,20H22V21H21zM22,20H23V21H22zM27,20H28V21H27zM30,20H31V21H30zM31,20H32V21H31zM32,20H33V21H32zM33,20H34V21H33zM36,20H37V21H36zM39,20H40V21H39zM43,20H44V21H43zM46,20H47V21H46zM5,21H6V22H5zM7,21H8V22H7zM9,21H10V22H9zM11,21H12V22H11zM12,21H13V22H12zM13,21H14V22H13zM15,21H16V22H15zM17,21H18V22H17zM18,21H19V22H18zM19,21H20V22H19zM20,21H21V22H20zM21,21H22V22H21zM22,21H23V22H22zM23,21H24V22H23zM25,21H26V22H25zM26,21H27V22H26zM27,21H28V22H27zM31,21H32V22H31zM33,21H34V22H33zM34,21H35V22H34zM35,21H36V22H35zM36,21H37V22H36zM37,21H38V22H37zM39,21H40V22H39zM42,21H43V22H42zM44,21H45V22H44zM45,21H46V22H45zM6,22H7V23H6zM7,22H8V23H7zM8,22H9V23H8zM9,22H10V23H9zM10,22H11V23H10zM13,22H14V23H13zM14,22H15V23H14zM17,22H18V23H17zM18,22H19V23H18zM22,22H23V23H22zM23,22H24V23H23zM24,22H25V23H24zM25,22H26V23H25zM26,22H27V23H26zM28,22H29V23H28zM29,22H30V23H29zM30,22H31V23H30zM33,22H34V23H33zM38,22H39V23H38zM39,22H40V23H39zM40,22H41V23H40zM41,22H42V23H41zM42,22H43V23H42zM45,22H46V23H45zM3,23H4V24H3zM4,23H5V24H4zM5,23H6V24H5zM6,23H7V24H6zM10,23H11V24H10zM15,23H16V24H15zM16,23H17V24H16zM17,23H18V24H17zM18,23H19V24H18zM19,23H20V24H19zM22,23H23V24H22zM26,23H27V24H26zM31,23H32V24H31zM33,23H34V24H33zM34,23H35V24H34zM35,23H36V24H35zM36,23H37V24H36zM37,23H38V24H37zM38,23H39V24H38zM42,23H43V24H42zM44,23H45V24H44zM3,24H4V25H3zM6,24H7V25H6zM8,24H9V25H8zM10,24H11V25H10zM11,24H12V25H11zM12,24H13V25H12zM14,24H15V25H14zM15,24H16V25H15zM19,24H20V25H19zM20,24H21V25H20zM22,24H23V25H22zM24,24H25V25H24zM26,24H27V25H26zM29,24H30V25H29zM30,24H31V25H30zM32,24H33V25H32zM34,24H35V25H34zM35,24H36V25H35zM36,24H37V25H36zM38,24H39V25H38zM40,24H41V25H40zM42,24H43V25H42zM43,24H44V25H43zM44,24H45V25H44zM45,24H46V25H45zM4,25H5V26H4zM6,25H7V26H6zM10,25H11V26H10zM12,25H13V26H12zM15,25H16V26H15zM16,25H17V26H16zM19,25H20V26H19zM20,25H21V26H20zM22,25H23V26H22zM26,25H27V26H26zM31,25H32V26H31zM32,25H33V26H32zM34,25H35V26H34zM35,25H36V26H35zM38,25H39V26H38zM42,25H43V26H42zM43,25H44V26H43zM44,25H45V26H44zM45,25H46V26H45zM46,25H47V26H46zM2,26H3V27H2zM3,26H4V27H3zM4,26H5V27H4zM5,26H6V27H5zM6,26H7V27H6zM7,26H8V27H7zM8,26H9V27H8zM9,26H10V27H9zM10,26H11V27H10zM12,26H13V27H12zM14,26H15V27H14zM17,26H18V27H17zM19,26H20V27H19zM20,26H21V27H20zM22,26H23V27H22zM23,26H24V27H23zM24,26H25V27H24zM25,26H26V27H25zM26,26H27V27H26zM28,26H29V27H28zM32,26H33V27H32zM34,26H35V27H34zM36,26H37V27H36zM37,26H38V27H37zM38,26H39V27H38zM39,26H40V27H39zM40,26H41V27H40zM41,26H42V27H41zM42,26H43V27H42zM43,26H44V27H43zM44,26H45V27H44zM2,27H3V28H2zM3,27H4V28H3zM4,27H5V28H4zM14,27H15V28H14zM18,27H19V28H18zM20,27H21V28H20zM22,27H23V28H22zM24,27H25V28H24zM25,27H26V28H25zM26,27H27V28H26zM27,27H28V28H27zM28,27H29V28H28zM29,27H30V28H29zM30,27H31V28H30zM32,27H33V28H32zM34,27H35V28H34zM35,27H36V28H35zM37,27H38V28H37zM38,27H39V28H38zM40,27H41V28H40zM41,27H42V28H41zM43,27H44V28H43zM46,27H47V28H46zM3,28H4V29H3zM7,28H8V29H7zM8,28H9V29H8zM10,28H11V29H10zM11,28H12V29H11zM13,28H14V29H13zM14,28H15V29H14zM16,28H17V29H16zM20,28H21V29H20zM21,28H22V29H21zM22,28H23V29H22zM24,28H25V29H24zM26,28H27V29H26zM27,28H28V29H27zM28,28H29V29H28zM29,28H30V29H29zM33,28H34V29H33zM34,28H35V29H34zM36,28H37V29H36zM37,28H38V29H37zM38,28H39V29H38zM39,28H40V29H39zM42,28H43V29H42zM43,28H44V29H43zM45,28H46V29H45zM2,29H3V30H2zM4,29H5V30H4zM5,29H6V30H5zM9,29H10V30H9zM10,29H11V30H10zM11,29H12V30H11zM12,29H13V30H12zM13,29H14V30H13zM16,29H17V30H16zM17,29H18V30H17zM18,29H19V30H18zM19,29H20V30H19zM21,29H22V30H21zM24,29H25V30H24zM25,29H26V30H25zM27,29H28V30H27zM29,29H30V30H29zM30,29H31V30H30zM31,29H32V30H31zM32,29H33V30H32zM35,29H36V30H35zM37,29H38V30H37zM42,29H43V30H42zM43,29H44V30H43zM44,29H45V30H44zM3,30H4V31H3zM4,30H5V31H4zM5,30H6V31H5zM8,30H9V31H8zM10,30H11V31H10zM11,30H12V31H11zM13,30H14V31H13zM14,30H15V31H14zM16,30H17V31H16zM17,30H18V31H17zM18,30H19V31H18zM23,30H24V31H23zM24,30H25V31H24zM26,30H27V31H26zM28,30H29V31H28zM30,30H31V31H30zM31,30H32V31H31zM33,30H34V31H33zM36,30H37V31H36zM38,30H39V31H38zM39,30H40V31H39zM40,30H41V31H40zM42,30H43V31H42zM2,31H3V32H2zM5,31H6V32H5zM9,31H10V32H9zM13,31H14V32H13zM17,31H18V32H17zM18,31H19V32H18zM19,31H20V32H19zM20,31H21V32H20zM22,31H23V32H22zM23,31H24V32H23zM25,31H26V32H25zM29,31H30V32H29zM30,31H31V32H30zM32,31H33V32H32zM33,31H34V32H33zM35,31H36V32H35zM37,31H38V32H37zM39,31H40V32H39zM40,31H41V32H40zM41,31H42V32H41zM43,31H44V32H43zM44,31H45V32H44zM45,31H46V32H45zM46,31H47V32H46zM2,32H3V33H2zM3,32H4V33H3zM4,32H5V33H4zM5,32H6V33H5zM6,32H7V33H6zM8,32H9V33H8zM9,32H10V33H9zM10,32H11V33H10zM11,32H12V33H11zM12,32H13V33H12zM14,32H15V33H14zM16,32H17V33H16zM17,32H18V33H17zM18,32H19V33H18zM25,32H26V33H25zM26,32H27V33H26zM29,32H30V33H29zM30,32H31V33H30zM32,32H33V33H32zM33,32H34V33H33zM35,32H36V33H35zM38,32H39V33H38zM40,32H41V33H40zM41,32H42V33H41zM42,32H43V33H42zM43,32H44V33H43zM46,32H47V33H46zM4,33H5V34H4zM6,33H7V34H6zM9,33H10V34H9zM10,33H11V34H10zM11,33H12V34H11zM14,33H15V34H14zM16,33H17V34H16zM18,33H19V34H18zM20,33H21V34H20zM22,33H23V34H22zM31,33H32V34H31zM32,33H33V34H32zM34,33H35V34H34zM35,33H36V34H35zM37,33H38V34H37zM38,33H39V34H38zM40,33H41V34H40zM41,33H42V34H41zM43,33H44V34H43zM44,33H45V34H44zM45,33H46V34H45zM46,33H47V34H46zM2,34H3V35H2zM3,34H4V35H3zM4,34H5V35H4zM5,34H6V35H5zM6,34H7V35H6zM7,34H8V35H7zM8,34H9V35H8zM9,34H10V35H9zM10,34H11V35H10zM14,34H15V35H14zM15,34H16V35H15zM18,34H19V35H18zM19,34H20V35H19zM22,34H23V35H22zM23,34H24V35H23zM24,34H25V35H24zM25,34H26V35H25zM27,34H28V35H27zM28,34H29V35H28zM33,34H34V35H33zM36,34H37V35H36zM38,34H39V35H38zM39,34H40V35H39zM42,34H43V35H42zM46,34H47V35H46zM3,35H4V36H3zM5,35H6V36H5zM6,35H7V36H6zM9,35H10V36H9zM10,35H11V36H10zM12,35H13V36H12zM13,35H14V36H13zM15,35H16V36H15zM16,35H17V36H16zM17,35H18V36H17zM20,35H21V36H20zM24,35H25V36H24zM29,35H30V36H29zM30,35H31V36H30zM33,35H34V36H33zM34,35H35V36H34zM35,35H36V36H35zM36,35H37V36H36zM37,35H38V36H37zM38,35H39V36H38zM39,35H40V36H39zM40,35H41V36H40zM41,35H42V36H41zM42,35H43V36H42zM43,35H44V36H43zM44,35H45V36H44zM6,36H7V37H6zM8,36H9V37H8zM9,36H10V37H9zM12,36H13V37H12zM16,36H17V37H16zM18,36H19V37H18zM19,36H20V37H19zM24,36H25V37H24zM27,36H28V37H27zM28,36H29V37H28zM30,36H31V37H30zM33,36H34V37H33zM35,36H36V37H35zM39,36H40V37H39zM44,36H45V37H44zM3,37H4V38H3zM4,37H5V38H4zM5,37H6V38H5zM6,37H7V38H6zM9,37H10V38H9zM13,37H14V38H13zM16,37H17V38H16zM18,37H19V38H18zM19,37H20V38H19zM22,37H23V38H22zM23,37H24V38H23zM25,37H26V38H25zM31,37H32V38H31zM34,37H35V38H34zM37,37H38V38H37zM40,37H41V38H40zM41,37H42V38H41zM43,37H44V38H43zM44,37H45V38H44zM45,37H46V38H45zM46,37H47V38H46zM2,38H3V39H2zM5,38H6V39H5zM6,38H7V39H6zM8,38H9V39H8zM12,38H13V39H12zM13,38H14V39H13zM17,38H18V39H17zM20,38H21V39H20zM21,38H22V39H21zM22,38H23V39H22zM23,38H24V39H23zM24,38H25V39H24zM25,38H26V39H25zM26,38H27V39H26zM29,38H30V39H29zM30,38H31V39H30zM32,38H33V39H32zM34,38H35V39H34zM37,38H38V39H37zM38,38H39V39H38zM39,38H40V39H39zM40,38H41V39H40zM41,38H42V39H41zM42,38H43V39H42zM45,38H46V39H45zM10,39H11V40H10zM14,39H15V40H14zM15,39H16V40H15zM16,39H17V40H16zM20,39H21V40H20zM21,39H22V40H21zM22,39H23V40H22zM26,39H27V40H26zM27,39H28V40H27zM28,39H29V40H28zM29,39H30V40H29zM31,39H32V40H31zM33,39H34V40H33zM35,39H36V40H35zM37,39H38V40H37zM38,39H39V40H38zM42,39H43V40H42zM43,39H44V40H43zM45,39H46V40H45zM46,39H47V40H46zM2,40H3V41H2zM3,40H4V41H3zM4,40H5V41H4zM5,40H6V41H5zM6,40H7V41H6zM7,40H8V41H7zM8,40H9V41H8zM14,40H15V41H14zM15,40H16V41H15zM16,40H17V41H16zM17,40H18V41H17zM19,40H20V41H19zM20,40H21V41H20zM21,40H22V41H21zM22,40H23V41H22zM24,40H25V41H24zM26,40H27V41H26zM27,40H28V41H27zM31,40H32V41H31zM32,40H33V41H32zM33,40H34V41H33zM34,40H35V41H34zM36,40H37V41H36zM37,40H38V41H37zM38,40H39V41H38zM40,40H41V41H40zM42,40H43V41H42zM45,40H46V41H45zM2,41H3V42H2zM8,41H9V42H8zM10,41H11V42H10zM14,41H15V42H14zM15,41H16V42H15zM17,41H18V42H17zM20,41H21V42H20zM21,41H22V42H21zM22,41H23V42H22zM26,41H27V42H26zM27,41H28V42H27zM31,41H32V42H31zM32,41H33V42H32zM36,41H37V42H36zM37,41H38V42H37zM38,41H39V42H38zM42,41H43V42H42zM43,41H44V42H43zM44,41H45V42H44zM46,41H47V42H46zM2,42H3V43H2zM4,42H5V43H4zM5,42H6V43H5zM6,42H7V43H6zM8,42H9V43H8zM14,42H15V43H14zM16,42H17V43H16zM21,42H22V43H21zM22,42H23V43H22zM23,42H24V43H23zM24,42H25V43H24zM25,42H26V43H25zM26,42H27V43H26zM28,42H29V43H28zM31,42H32V43H31zM33,42H34V43H33zM37,42H38V43H37zM38,42H39V43H38zM39,42H40V43H39zM40,42H41V43H40zM41,42H42V43H41zM42,42H43V43H42zM46,42H47V43H46zM2,43H3V44H2zM4,43H5V44H4zM5,43H6V44H5zM6,43H7V44H6zM8,43H9V44H8zM11,43H12V44H11zM14,43H15V44H14zM16,43H17V44H16zM19,43H20V44H19zM23,43H24V44H23zM25,43H26V44H25zM26,43H27V44H26zM29,43H30V44H29zM30,43H31V44H30zM31,43H32V44H31zM32,43H33V44H32zM33,43H34V44H33zM34,43H35V44H34zM35,43H36V44H35zM42,43H43V44H42zM44,43H45V44H44zM45,43H46V44H45zM46,43H47V44H46zM2,44H3V45H2zM4,44H5V45H4zM5,44H6V45H5zM6,44H7V45H6zM8,44H9V45H8zM12,44H13V45H12zM15,44H16V45H15zM16,44H17V45H16zM17,44H18V45H17zM19,44H20V45H19zM20,44H21V45H20zM21,44H22V45H21zM22,44H23V45H22zM27,44H28V45H27zM28,44H29V45H28zM29,44H30V45H29zM34,44H35V45H34zM35,44H36V45H35zM37,44H38V45H37zM38,44H39V45H38zM42,44H43V45H42zM44,44H45V45H44zM45,44H46V45H45zM46,44H47V45H46zM2,45H3V46H2zM8,45H9V46H8zM17,45H18V46H17zM19,45H20V46H19zM21,45H22V46H21zM22,45H23V46H22zM26,45H27V46H26zM29,45H30V46H29zM30,45H31V46H30zM31,45H32V46H31zM34,45H35V46H34zM37,45H38V46H37zM38,45H39V46H38zM42,45H43V46H42zM44,45H45V46H44zM2,46H3V47H2zM3,46H4V47H3zM4,46H5V47H4zM5,46H6V47H5zM6,46H7V47H6zM7,46H8V47H7zM8,46H9V47H8zM12,46H13V47H12zM13,46H14V47H13zM14,46H15V47H14zM15,46H16V47H15zM19,46H20V47H19zM20,46H21V47H20zM23,46H24V47H23zM25,46H26V47H25zM27,46H28V47H27zM28,46H29V47H28zM32,46H33V47H32zM36,46H37V47H36zM37,46H38V47H37zM39,46H40V47H39zM40,46H41V47H40zM41,46H42V47H41zM45,46H46V47H45z" id="qr-path" fill="#000000" fill-opacity="1" fill-rule="nonzero" stroke="none"/></svg>